<?xml version="1.0" standalone="no"?>
<!DOCTYPE svg PUBLIC "-//W3C//DTD SVG 20010904//EN"
 "http://www.w3.org/TR/2001/REC-SVG-20010904/DTD/svg10.dtd">
<svg version="1.0" xmlns="http://www.w3.org/2000/svg"
 width="1280.000000pt" height="719.000000pt" viewBox="0 0 1280.000000 719.000000"
 preserveAspectRatio="xMidYMid meet">
<metadata>
Created by potrace 1.15, written by Peter Selinger 2001-2017
</metadata>
<g transform="translate(0.000000,719.000000) scale(0.100000,-0.100000)"
fill="#000000" stroke="none">
<path d="M6195 6520 c-122 -27 -163 -81 -205 -268 -19 -84 1 -228 41 -287 17
-25 34 -45 39 -45 14 0 24 -64 11 -68 -6 -2 -11 -11 -10 -20 0 -11 2 -12 6 -4
7 18 30 15 30 -5 0 -10 -10 -32 -23 -49 -33 -45 -246 -160 -365 -197 -24 -8
-89 -140 -120 -245 -16 -51 -43 -120 -61 -153 l-33 -60 33 -30 c31 -28 32 -31
32 -106 0 -43 -5 -199 -11 -348 -8 -189 -8 -320 -1 -435 9 -149 9 -165 -6
-176 -16 -11 -15 -15 6 -37 23 -24 23 -30 22 -183 -2 -267 -3 -263 24 -309 18
-29 21 -42 11 -42 -7 0 -11 6 -9 12 3 7 -6 20 -20 29 -22 14 -25 22 -22 58 3
23 1 36 -4 29 -6 -11 -9 -11 -13 0 -3 8 -3 -2 0 -22 3 -20 1 -39 -5 -43 -6 -4
-9 3 -6 16 2 13 -1 8 -8 -9 -10 -29 -15 -33 -47 -33 -26 0 -40 -6 -50 -22
l-13 -21 -17 22 -18 23 -25 -31 c-20 -23 -27 -27 -32 -16 -7 20 -26 19 -26 0
0 -9 -6 -15 -12 -14 -41 5 -48 -1 -48 -41 0 -29 -4 -40 -15 -40 -9 0 -12 -6
-8 -16 6 -15 7 -15 19 1 9 12 17 15 26 9 20 -15 68 -17 84 -4 12 10 14 8 14
-14 0 -21 5 -26 28 -28 73 -4 141 -7 185 -9 27 -1 47 -6 47 -13 0 -6 5 -4 10
4 9 13 10 13 10 0 0 -12 2 -12 9 -2 5 9 11 -13 15 -60 10 -95 30 -170 61 -231
23 -42 26 -61 27 -155 1 -59 0 -125 -1 -147 l-3 -40 -7 35 c-5 30 -7 32 -14
15 -8 -18 -10 -18 -22 10 -13 30 -13 30 -14 5 -1 -24 -4 -25 -42 -22 -28 3
-44 0 -50 -9 -8 -11 -13 -10 -28 9 -11 12 -31 22 -45 22 -26 0 -36 -15 -14
-22 6 -2 9 -10 7 -17 -3 -8 -13 -4 -33 14 -24 22 -36 26 -82 24 -50 -2 -54 -4
-60 -32 l-6 -30 -18 23 -18 23 -7 -31 c-6 -30 -25 -45 -25 -21 0 20 -45 4 -57
-21 -9 -18 -13 -20 -13 -7 0 9 -7 17 -15 17 -21 0 -19 17 3 24 9 2 -5 2 -33
-1 -27 -3 -51 -10 -53 -14 -5 -13 -36 -11 -51 4 -10 10 -15 9 -25 -5 -7 -10
-22 -18 -32 -18 -16 0 -17 2 -4 11 11 7 -15 9 -92 4 -70 -4 -108 -3 -113 4 -8
14 -52 14 -60 1 -3 -5 0 -10 7 -10 10 0 10 -2 -1 -9 -7 -5 -28 -4 -47 2 -26 8
-40 7 -60 -3 -20 -11 -29 -12 -45 -2 -15 10 -19 10 -19 -2 0 -15 -49 -26 -117
-26 -36 0 -43 3 -43 20 0 23 -15 27 -24 5 -3 -8 -18 -15 -33 -15 -15 0 -36 -7
-46 -15 -23 -17 -39 -11 -84 31 -37 35 -49 40 -55 25 -1 -5 -39 -12 -83 -16
-44 -3 -75 -3 -69 2 9 6 8 11 -2 21 -12 11 -14 9 -14 -7 0 -20 -25 -35 -42
-25 -6 4 -5 10 3 15 9 5 4 7 -15 5 -16 -2 -33 -10 -38 -19 -11 -21 -28 -22
-28 -3 0 8 -7 16 -15 20 -10 4 -15 -1 -15 -15 0 -15 -5 -19 -17 -15 -10 3 -46
2 -80 -3 -35 -4 -63 -4 -63 0 0 9 -253 4 -307 -6 -28 -5 -48 -4 -57 4 -10 9
-16 8 -26 -4 -16 -19 -30 -19 -30 -1 0 17 -56 26 -70 12 -13 -13 -110 -16
-110 -4 0 13 -38 9 -43 -4 -3 -10 -9 -10 -26 0 -27 15 -48 15 -54 0 -3 -10 -8
-10 -21 1 -35 29 -216 34 -216 6 0 -8 -4 -15 -9 -15 -5 0 -14 7 -21 15 -7 8
-21 15 -31 15 -11 0 -19 6 -19 14 0 13 -4 13 -27 0 -26 -13 -56 -12 -118 3
-14 3 -16 2 -7 -5 11 -7 11 -10 -2 -15 -8 -3 -18 -2 -21 3 -3 5 -19 7 -35 3
-25 -4 -30 -2 -30 13 0 11 -3 15 -8 9 -6 -9 -56 -35 -67 -35 -3 0 -5 6 -5 13
0 10 -21 13 -92 11 -51 -1 -156 -3 -232 -4 -77 -1 -148 -6 -159 -11 -11 -7
-23 -7 -30 -1 -16 13 -141 6 -145 -8 -3 -7 -9 -4 -17 7 -11 14 -17 16 -32 7
-14 -9 -24 -7 -47 9 -16 12 -27 16 -23 10 4 -6 0 -16 -8 -23 -12 -10 -15 -10
-15 1 -1 10 -4 8 -11 -3 -12 -22 -29 -23 -29 -3 0 11 -12 15 -45 15 -28 0 -45
4 -45 12 0 9 -3 9 -12 0 -16 -16 -98 -16 -98 0 0 6 -6 4 -13 -6 -12 -17 -15
-17 -29 -2 -22 22 -38 20 -38 -4 0 -18 -3 -19 -20 -10 -14 8 -26 8 -40 0 -14
-7 -20 -7 -20 0 0 5 8 10 17 10 13 0 14 3 5 12 -8 8 -15 8 -24 1 -21 -17 -78
-22 -78 -6 0 15 -12 17 -26 3 -6 -6 -29 -11 -52 -13 -23 -1 -47 -8 -54 -15
-16 -16 -28 -15 -28 3 0 8 -7 15 -15 15 -8 0 -12 -6 -9 -14 5 -14 -22 -30 -36
-21 -5 3 -7 12 -3 20 5 16 -12 21 -21 7 -3 -5 -33 -9 -68 -10 -35 -1 -76 -4
-93 -7 -21 -3 -24 -3 -11 3 18 8 18 9 2 15 -10 4 -34 7 -54 7 -28 0 -33 -3
-24 -12 17 -17 15 -28 -4 -28 -9 0 -18 9 -21 20 -3 11 -14 20 -24 20 -19 0
-26 -15 -11 -22 4 -1 2 -14 -5 -28 l-13 -25 0 25 c0 20 -7 27 -35 36 -25 8
-36 8 -40 0 -3 -8 -7 -7 -11 2 -10 21 -40 13 -52 -15 l-11 -28 2 32 c3 29 2
30 -20 22 -12 -4 -30 -6 -39 -2 -9 3 -20 0 -25 -8 -6 -10 -9 -10 -9 -1 0 7
-14 12 -35 12 -31 0 -35 -3 -35 -27 0 -14 -3 -23 -8 -19 -4 4 -7 11 -7 14 0
15 -32 51 -39 44 -4 -4 -18 -7 -29 -8 -12 0 -34 -1 -49 -2 l-28 -2 0 -1315 0
-1315 6400 0 6400 0 0 1145 c0 944 -2 1145 -13 1145 -19 0 -60 47 -52 59 8 14
42 14 50 1 4 -6 1 -17 -5 -25 -10 -12 -9 -15 4 -15 13 0 17 7 14 28 -3 24 -7
27 -41 27 -20 0 -37 3 -37 8 0 4 -4 7 -10 7 -5 0 -10 -8 -10 -19 0 -13 -10
-20 -32 -25 -26 -5 -30 -9 -18 -16 8 -6 27 -7 43 -4 22 5 27 2 27 -14 0 -11 6
-23 13 -25 6 -3 -2 -6 -20 -6 -17 -1 -35 4 -38 9 -8 14 -35 13 -35 -1 0 -7 7
-17 17 -24 15 -11 14 -14 -5 -33 -12 -12 -27 -22 -34 -22 -6 0 -3 7 8 15 19
14 18 14 -3 15 -13 0 -23 4 -23 9 0 4 -43 7 -95 5 -52 -3 -95 0 -95 5 0 12 47
20 90 15 22 -3 14 1 -22 12 -52 14 -60 14 -80 0 -12 -9 -17 -16 -10 -16 6 0
12 -7 12 -15 0 -8 -6 -15 -14 -15 -8 0 -16 7 -20 15 -7 20 -33 19 -44 -1 -8
-15 -10 -15 -15 0 -4 9 -2 16 3 16 6 0 10 7 10 16 0 11 -6 14 -21 9 -13 -4
-27 0 -40 11 -17 16 -19 16 -19 1 0 -21 -14 -22 -30 -2 -7 8 -26 15 -42 15
-24 0 -28 -3 -19 -13 12 -15 5 -27 -16 -27 -7 0 -13 7 -13 16 0 9 -6 14 -12
11 -7 -2 -13 -13 -13 -24 0 -36 -12 -36 -19 1 -4 19 -14 37 -22 40 -22 8 -22
9 -16 -19 2 -15 0 -25 -7 -25 -6 0 -11 -9 -11 -20 0 -11 -4 -20 -10 -20 -14 0
-13 26 2 50 7 10 9 22 5 26 -12 12 -37 -29 -33 -53 2 -13 -1 -23 -6 -23 -6 0
-8 -7 -4 -15 3 -10 -1 -15 -13 -15 -13 0 -18 5 -14 18 7 29 -30 62 -71 62 -25
0 -36 -4 -36 -15 0 -9 -9 -15 -24 -15 -13 0 -31 -3 -40 -6 -11 -4 -16 0 -16
12 -1 23 -27 60 -37 51 -3 -4 1 -15 9 -24 20 -24 30 -53 18 -53 -6 0 -10 -9
-10 -20 0 -11 -5 -20 -11 -20 -6 0 -8 9 -4 20 7 21 -9 50 -26 50 -5 0 -9 -9
-9 -21 0 -11 -4 -18 -10 -14 -6 3 -6 15 0 30 7 19 6 23 -5 18 -8 -3 -15 -9
-15 -14 0 -5 -7 -9 -15 -9 -18 0 -20 17 -2 23 6 2 9 8 5 12 -4 4 -24 0 -43
-10 -22 -10 -47 -14 -61 -11 -20 5 -24 3 -24 -14 0 -18 3 -19 20 -10 21 11 60
-2 60 -20 0 -6 -9 -5 -20 2 -16 10 -24 10 -38 0 -9 -7 -24 -15 -32 -19 -8 -4
-18 -11 -21 -16 -10 -14 -29 1 -22 18 3 9 -1 15 -10 15 -9 0 -17 -8 -19 -17
-3 -16 -6 -15 -26 5 -12 12 -28 22 -36 22 -8 0 -17 6 -19 13 -4 9 -6 9 -6 0
-1 -19 -58 -16 -65 3 -8 20 -26 9 -26 -16 0 -26 -21 -36 -35 -17 -17 24 -25
21 -25 -8 0 -32 -11 -31 -49 1 -21 18 -39 24 -58 21 l-28 -4 28 -2 c43 -2 32
-21 -13 -21 -32 0 -40 4 -40 18 0 19 -18 42 -32 42 -4 0 -8 -7 -8 -15 0 -8 -6
-15 -14 -15 -9 0 -12 7 -9 20 3 11 0 20 -6 20 -6 0 -11 -16 -11 -35 l0 -35
-126 0 c-109 0 -129 -2 -140 -17 -13 -17 -15 -17 -28 0 -8 10 -20 15 -30 11
-9 -3 -16 -2 -16 3 0 6 -10 21 -21 34 -19 21 -21 22 -15 4 7 -26 -10 -56 -22
-37 -6 9 -12 5 -22 -15 l-13 -28 -10 38 c-9 36 -37 53 -37 22 0 -11 -11 -15
-40 -15 -37 0 -40 -2 -40 -27 0 -25 -1 -26 -20 -8 -11 10 -28 15 -40 12 -25
-6 -26 5 -2 26 13 12 16 27 14 61 -5 58 -20 60 -24 4 -3 -42 -4 -43 -38 -41
-19 1 -36 6 -38 13 -2 6 -15 -2 -28 -17 -24 -28 -25 -28 -40 -8 -14 19 -13 21
17 33 36 15 34 19 -10 32 -28 8 -31 6 -31 -12 0 -19 -4 -20 -77 -13 -63 5 -83
11 -104 32 -23 21 -27 22 -33 8 -3 -9 -6 -28 -6 -41 0 -21 -4 -24 -20 -19 -15
5 -20 2 -20 -12 0 -15 -2 -15 -9 -4 -6 10 -31 15 -73 17 -59 2 -60 2 -14 -4
l49 -7 -27 -15 c-20 -10 -32 -11 -44 -4 -13 8 -20 6 -33 -10 l-17 -21 -7 27
c-11 44 -35 35 -35 -12 l0 -40 -45 0 c-25 0 -45 5 -45 10 0 7 -32 10 -87 8
-76 -3 -88 -5 -85 -20 1 -9 -2 -19 -7 -23 -14 -8 -31 28 -21 45 8 14 3 40 -9
40 -10 0 -29 -49 -26 -68 1 -9 0 -12 -2 -7 -2 6 -38 11 -81 13 -42 1 -78 7
-80 12 -2 6 -21 10 -43 10 -34 0 -39 -3 -39 -22 0 -17 -3 -19 -12 -10 -18 18
-68 15 -68 -3 0 -19 -14 -19 -30 0 -15 18 -47 20 -53 3 -3 -10 -9 -11 -26 0
-11 6 -28 12 -36 12 -8 0 -15 7 -15 16 0 10 -7 14 -22 12 -26 -4 -37 -28 -12
-28 9 0 15 -3 11 -6 -3 -3 -40 1 -82 10 -43 9 -88 16 -101 16 -14 0 -34 8 -45
19 -17 16 -18 19 -4 31 8 7 15 19 15 26 0 20 -89 19 -96 -1 -4 -8 -12 -15 -20
-15 -17 0 -19 41 -3 57 16 16 2 33 -24 32 -17 -1 -18 -2 -4 -6 21 -5 23 -29 2
-37 -8 -3 -15 -15 -15 -26 0 -16 -7 -20 -30 -20 -28 0 -30 2 -30 39 0 36 3 40
28 44 22 3 20 4 -10 6 -32 1 -38 -2 -38 -19 0 -18 -7 -20 -80 -20 -64 0 -80 3
-80 15 0 11 12 15 50 15 l50 0 0 40 c0 22 -4 40 -10 40 -5 0 -10 11 -10 25 0
22 3 24 18 16 14 -7 22 -5 35 9 10 12 23 17 36 13 12 -3 21 -1 21 6 0 12 -10
14 -54 11 -36 -2 -47 14 -33 51 12 29 25 36 43 20 5 -5 18 -5 29 -1 16 7 17 9
3 9 -12 1 -17 9 -16 29 1 15 -2 39 -6 54 -7 24 -6 26 13 21 13 -3 30 2 42 13
16 14 22 16 28 5 6 -9 11 -10 15 -3 13 22 70 42 117 42 26 0 51 5 54 10 3 5
15 10 25 10 10 0 21 6 23 13 3 6 6 1 6 -12 1 -23 2 -23 19 -8 10 10 28 17 40
17 15 0 22 6 22 20 0 16 7 20 35 20 41 0 47 -17 8 -23 -26 -4 -26 -4 5 -6 17
0 32 4 32 10 0 6 9 8 23 4 17 -5 19 -4 7 4 -13 10 -13 12 0 21 12 8 11 10 -7
10 -19 0 -23 6 -23 29 0 28 2 30 48 34 42 3 41 4 -15 5 -35 1 -63 -2 -63 -7 0
-5 5 -11 12 -13 13 -5 3 -58 -12 -58 -9 0 -15 38 -11 63 2 11 -17 9 -24 -3 -4
-6 -10 -8 -15 -5 -5 3 -16 -2 -24 -11 -23 -22 -50 -11 -37 15 8 15 7 20 -8 24
-15 3 -17 0 -13 -16 5 -18 2 -20 -36 -14 -32 4 -42 2 -42 -9 0 -10 7 -13 24
-8 14 3 33 1 43 -4 19 -11 22 -10 -62 -27 -14 -3 -25 -1 -25 4 0 5 -9 13 -20
16 -13 4 -20 15 -20 31 0 13 -4 24 -10 24 -5 0 -10 -13 -10 -30 0 -23 -4 -30
-20 -30 -11 0 -20 -3 -20 -7 0 -13 -49 -32 -56 -22 -3 5 2 9 10 9 9 0 16 5 16
10 0 6 -20 10 -45 10 -32 0 -45 -4 -45 -14 0 -12 -14 -13 -77 -9 -43 3 -80 10
-83 14 -7 10 -51 -1 -45 -11 7 -11 -68 -21 -79 -10 -7 7 0 10 20 11 27 1 27 2
-9 11 -38 10 -62 4 -40 -10 8 -5 9 -13 3 -22 -7 -11 -10 -12 -10 -2 0 10 -15
13 -52 12 -82 -3 -85 -2 -58 17 17 12 25 13 28 5 4 -14 52 -16 52 -2 0 5 -12
17 -26 26 -22 15 -31 16 -60 5 -30 -11 -39 -10 -60 4 -14 9 -23 20 -19 23 10
10 29 9 37 -3 5 -6 11 -6 19 2 20 20 -1 33 -52 33 -41 0 -49 -3 -49 -19 0 -28
-28 -34 -57 -11 -30 24 -114 28 -135 7 -7 -8 -24 -20 -37 -26 -19 -11 -25 -11
-32 0 -10 17 -39 -6 -39 -32 0 -11 -4 -19 -10 -19 -5 0 -10 7 -10 17 0 15 -2
15 -19 -1 -12 -11 -21 -13 -25 -7 -4 5 -14 9 -24 9 -9 -1 -34 3 -54 7 -31 6
-38 4 -38 -9 0 -13 11 -16 50 -16 38 0 50 -4 50 -15 0 -8 -4 -15 -10 -15 -5 0
-10 5 -10 10 0 6 -33 10 -80 10 -64 0 -80 3 -80 15 0 11 -11 15 -40 15 -38 0
-54 -13 -27 -23 9 -3 9 -7 -1 -19 -9 -12 -10 -18 -2 -23 8 -5 8 -11 -1 -21
-15 -19 -33 -18 -25 1 4 11 -3 19 -19 25 -14 5 -28 17 -31 25 -4 8 -14 15 -23
14 -10 0 -11 -2 -3 -6 6 -2 12 -12 12 -20 0 -13 -8 -14 -40 -9 -32 5 -40 3
-40 -9 0 -20 -60 -20 -137 0 -52 14 -105 45 -75 45 6 0 9 7 6 15 -4 8 -12 15
-20 15 -8 0 -14 5 -14 10 0 6 6 10 14 10 8 0 17 7 20 16 5 14 1 15 -31 9 -41
-9 -72 -9 -80 -1 -3 3 4 33 16 68 20 62 51 243 51 303 0 17 4 36 9 43 10 17 7
-65 -4 -93 l-8 -20 16 20 c9 11 17 26 17 33 0 7 5 10 10 7 6 -4 7 -11 4 -17
-4 -7 -2 -8 4 -4 19 12 14 36 -8 36 -11 0 -20 4 -20 10 0 5 6 7 14 4 9 -3 17
3 21 15 7 23 20 27 30 11 4 -6 1 -9 -7 -8 -18 4 -13 -51 7 -71 12 -12 18 -13
27 -3 9 9 9 15 0 24 -20 20 -14 28 23 28 21 0 35 5 35 13 0 6 5 4 11 -6 11
-18 11 -18 24 1 13 18 49 25 187 37 16 1 37 10 47 19 11 10 28 16 39 14 21 -3
72 20 72 33 0 5 21 8 47 7 29 -2 48 2 51 10 2 7 13 10 26 6 15 -3 28 2 41 16
13 14 21 17 26 9 14 -23 29 3 29 52 0 42 -3 49 -19 49 -11 0 -21 -6 -23 -12
-3 -9 -9 -8 -21 4 -9 9 -17 21 -17 26 0 17 -47 52 -79 58 -21 4 -36 14 -38 26
-4 14 -15 18 -52 18 -43 0 -71 12 -71 32 0 4 9 8 20 8 11 0 20 3 20 8 0 7 -65
52 -75 52 -3 0 -5 -16 -5 -35 l0 -35 -67 2 c-57 1 -60 2 -20 5 26 2 47 8 47
12 0 20 -32 32 -77 29 -43 -3 -48 -5 -47 -26 1 -39 -23 -4 -40 58 -11 37 -14
43 -11 18 3 -20 1 -39 -5 -43 -6 -3 -8 -11 -5 -16 4 -5 1 -9 -4 -9 -7 0 -11
30 -11 78 0 42 -4 115 -10 162 -5 47 -14 195 -20 330 -6 142 -19 297 -30 370
-11 69 -20 157 -20 197 l0 72 42 23 c23 13 59 45 79 72 38 49 38 50 22 85 -9
20 -31 83 -50 141 -59 179 -80 223 -136 279 -63 64 -76 71 -193 106 l-90 27
-12 58 c-20 93 -27 247 -13 264 6 7 14 38 17 67 4 42 3 51 -6 39 -9 -12 -11
-10 -6 10 16 79 17 160 2 234 -18 84 -28 101 -92 159 -49 44 -73 54 -139 56
-27 1 -57 3 -65 5 -8 2 -28 0 -45 -4z m402 -2602 c59 -34 82 -61 89 -106 7
-47 2 -50 -41 -22 -16 11 -32 20 -35 20 -4 0 -12 -16 -18 -35 -10 -26 -17 -32
-30 -28 -9 4 -19 9 -22 13 -3 3 -16 14 -30 23 -13 9 -19 17 -13 17 7 0 10 7 7
15 -4 8 -9 13 -14 10 -4 -2 -5 7 -2 21 2 14 9 23 15 21 6 -2 20 14 30 35 11
21 21 38 22 38 2 0 21 -10 42 -22z m-370 -663 c20 -14 22 -13 26 2 3 10 5 -13
6 -52 1 -38 7 -92 12 -120 13 -63 31 -216 33 -275 0 -25 5 -48 9 -51 15 -11
28 -144 17 -170 -9 -20 -10 -17 -5 19 5 42 5 42 -15 25 -11 -10 -24 -18 -28
-18 -4 0 -13 -4 -20 -9 -9 -5 -15 -1 -19 13 -4 17 -13 21 -49 21 -38 0 -44 -3
-50 -24 -3 -14 -3 -30 2 -37 4 -8 3 -9 -5 -5 -8 6 -10 0 -5 -18 4 -16 2 -26
-4 -26 -11 0 -9 46 4 125 5 27 9 34 13 23 3 -10 6 26 6 80 0 53 5 140 12 192
7 52 15 146 19 208 3 61 9 112 13 112 4 0 16 -7 28 -15z"/>
<path d="M12717 4883 c4 -32 3 -33 -37 -33 -23 0 -40 -5 -40 -11 0 -8 21 -10
73 -5 58 6 70 5 60 -5 -8 -8 -44 -13 -98 -14 -47 -1 -88 -4 -92 -8 -3 -4 -1
-7 5 -7 18 0 14 -25 -5 -41 -13 -11 -17 -11 -20 -1 -6 15 -33 16 -33 2 0 -6 6
-13 14 -16 8 -3 16 -14 19 -24 4 -16 0 -15 -32 6 -20 13 -41 28 -48 34 -16 13
-43 3 -69 -26 -18 -20 -30 -23 -88 -23 -37 1 -70 -2 -74 -5 -3 -3 31 -5 76 -4
51 2 81 -1 79 -7 -2 -5 -22 -11 -45 -13 -62 -5 -52 -24 11 -22 73 3 80 2 73
-15 -7 -20 4 -19 20 3 19 24 17 32 -6 32 -11 0 -20 5 -20 11 0 7 10 9 27 5 16
-5 29 -3 33 4 4 7 16 10 26 7 17 -4 17 -6 -3 -12 -13 -4 -23 -15 -23 -25 0
-10 -6 -20 -12 -23 -7 -2 -9 -8 -5 -13 4 -5 11 -4 15 2 11 18 62 26 78 13 10
-8 18 -8 27 0 10 8 17 7 25 -1 9 -9 12 -8 12 5 0 9 4 17 9 17 16 0 23 -20 12
-34 -6 -7 -8 -16 -4 -19 3 -4 1 -7 -4 -7 -6 0 -13 6 -16 13 -2 6 -8 9 -12 5
-4 -4 -3 -14 3 -21 7 -8 8 -18 4 -22 -4 -5 -1 -4 7 0 11 6 13 4 8 -8 -4 -12 2
-17 26 -20 l32 -3 -32 -8 c-41 -11 -43 -32 -3 -39 17 -4 30 -11 30 -16 0 -12
-37 -24 -50 -16 -5 3 -10 1 -10 -6 0 -15 68 -3 87 17 8 8 28 14 44 14 l29 0 0
196 c0 165 -2 195 -14 185 -10 -9 -16 -8 -26 4 -9 11 -16 12 -26 5 -9 -8 -14
-7 -17 7 -2 10 -2 3 0 -14z"/>
<path d="M12290 4181 c0 -4 15 -13 33 -19 30 -10 28 -11 -28 -10 -77 1 -83 0
-66 -11 12 -8 12 -12 2 -25 -9 -11 -10 -16 -2 -16 6 0 11 -4 11 -10 0 -5 -9
-10 -19 -10 -36 0 -51 -12 -51 -40 0 -16 6 -30 13 -33 6 -2 8 -8 4 -13 -4 -5
-12 -2 -16 5 -5 8 -14 10 -21 6 -10 -6 -9 -9 0 -15 20 -12 1 -31 -28 -28 -23
3 -27 0 -24 -21 2 -22 0 -23 -33 -17 -29 6 -36 4 -41 -11 -17 -50 -30 -73 -42
-73 -10 0 -9 -5 3 -17 11 -11 15 -26 11 -45 -3 -15 -1 -28 4 -28 6 0 10 5 10
11 0 5 5 7 10 4 20 -13 9 -25 -23 -25 -42 0 -49 7 -34 31 18 30 -2 54 -49 56
-21 1 -33 0 -26 -3 14 -7 17 -54 2 -54 -5 0 -10 -4 -10 -10 0 -5 9 -10 20 -10
11 0 20 -5 20 -11 0 -7 -7 -8 -17 -4 -10 4 -37 13 -61 21 -39 12 -44 12 -59
-6 -13 -15 -19 -16 -25 -7 -5 8 -8 7 -8 -5 0 -11 -8 -18 -20 -18 -11 0 -20 7
-20 15 0 22 -25 18 -27 -4 -2 -22 41 -35 68 -20 12 6 21 4 29 -6 10 -12 9 -16
-4 -21 -31 -12 -17 -29 24 -29 39 0 40 1 40 33 0 31 2 34 23 28 12 -3 30 -6
40 -6 9 0 17 -7 17 -15 0 -8 5 -15 10 -15 6 0 10 -11 10 -25 0 -14 -5 -25 -11
-25 -5 0 -9 10 -7 23 2 17 -2 22 -22 24 -14 1 -18 0 -9 -3 12 -4 18 -22 23
-66 5 -49 11 -66 33 -86 l28 -25 -30 7 c-17 4 -34 14 -38 22 -11 18 -27 18
-27 -1 0 -33 -28 -13 -37 28 -6 23 -11 32 -12 21 -1 -13 -10 -24 -22 -27 -17
-5 -19 -9 -10 -26 10 -17 8 -19 -9 -16 -17 3 -19 1 -10 -16 13 -22 40 -26 40
-4 0 8 5 15 10 15 14 0 12 -27 -2 -33 -10 -4 -10 -7 0 -18 15 -16 16 -65 2
-74 -6 -4 -13 7 -16 24 -5 24 -12 31 -30 31 -15 0 -24 -6 -24 -15 0 -21 30
-65 44 -65 6 0 17 -9 24 -20 10 -16 10 -24 0 -40 -7 -11 -19 -20 -25 -20 -11
0 -11 4 -1 20 15 24 2 53 -26 58 -15 3 -16 1 -6 -17 8 -15 8 -27 0 -41 -11
-21 -40 -28 -40 -10 0 6 7 10 15 10 8 0 15 9 15 20 0 11 -7 20 -15 20 -8 0
-15 4 -15 9 0 5 -11 11 -25 13 -17 4 -25 1 -25 -8 0 -8 7 -14 15 -14 8 0 15
-9 15 -20 0 -11 -7 -20 -15 -20 -8 0 -15 -4 -15 -10 0 -5 9 -10 20 -10 11 0
20 -7 20 -15 0 -8 9 -15 20 -15 11 0 20 5 20 12 0 6 3 8 7 4 4 -4 8 -17 8 -29
0 -13 6 -22 15 -22 9 0 15 9 15 22 0 13 5 23 10 23 6 0 10 -9 10 -19 0 -11 3
-23 8 -27 4 -4 7 7 7 24 0 30 2 32 39 32 22 0 44 -6 51 -15 17 -21 30 -19 30
5 0 11 7 20 15 20 9 0 12 6 9 15 -4 8 -1 15 5 15 6 0 11 -6 11 -14 0 -8 11
-23 25 -34 24 -19 24 -20 5 -37 -10 -9 -22 -31 -26 -48 -4 -18 -14 -37 -23
-44 -15 -11 -14 -12 2 -13 9 0 17 4 17 8 0 5 18 15 40 22 27 9 40 19 40 32 0
10 5 18 10 18 6 0 10 -6 10 -14 0 -8 -4 -18 -10 -21 -5 -3 -10 -16 -10 -28 0
-21 0 -21 16 2 13 18 23 22 44 18 29 -6 74 18 64 34 -3 5 -11 7 -17 3 -7 -3
-3 2 7 10 15 12 22 13 27 4 9 -15 111 -29 123 -17 6 5 51 10 100 11 83 2 85 2
24 5 -85 5 -89 23 -5 24 88 1 122 17 37 18 -36 1 -88 4 -117 7 -51 7 -51 6
-55 -22 -2 -17 -10 -30 -19 -32 -13 -2 -18 7 -21 45 -3 26 -1 52 4 58 5 5 8 2
8 -8 0 -9 5 -17 10 -17 6 0 10 12 10 26 0 14 4 23 10 19 6 -4 7 -11 4 -17 -5
-7 2 -9 19 -4 19 4 29 1 36 -11 6 -10 11 -12 11 -5 0 13 46 17 52 3 2 -4 13
-11 25 -15 16 -5 25 -2 33 14 9 17 14 19 26 10 7 -7 11 -16 8 -21 -3 -5 0 -9
5 -9 6 0 11 7 11 15 0 10 10 15 31 15 17 0 39 4 49 10 24 13 80 1 80 -16 0
-10 13 -14 40 -14 l40 0 0 305 c0 297 -1 305 -20 305 -10 0 -25 -10 -31 -22
-19 -36 -37 -50 -61 -46 -18 2 -22 9 -21 33 0 17 4 38 8 48 4 10 3 17 -5 17
-6 0 -8 5 -5 11 4 5 -1 19 -10 29 -18 20 -13 40 11 40 8 0 14 5 14 10 0 14
-13 13 -28 -2 -9 -9 -12 -8 -12 5 0 25 -39 36 -107 32 l-58 -5 45 14 c30 9 37
14 22 15 -13 1 -20 5 -17 11 4 6 21 8 42 4 27 -5 34 -4 28 5 -4 7 -13 10 -21
7 -8 -3 -14 -1 -14 4 0 6 -7 10 -15 10 -8 0 -15 5 -15 11 0 6 9 9 20 6 11 -3
23 -1 26 4 7 12 -14 39 -30 39 -6 0 -4 -5 4 -11 11 -8 7 -9 -20 -6 -19 3 -29
3 -22 0 18 -7 4 -23 -20 -23 -15 0 -19 5 -15 19 3 14 0 17 -13 14 -11 -3 -19
3 -23 16 -3 15 -10 19 -22 15 -9 -4 -14 -13 -10 -21 4 -11 -4 -10 -30 6 -36
21 -85 28 -85 12z"/>
<path d="M11697 3995 c-38 -26 -42 -36 -27 -70 7 -15 9 -16 9 -4 1 9 8 22 16
29 9 7 14 19 11 26 -10 25 7 23 21 -3 9 -18 10 -30 3 -37 -19 -19 -10 -26 32
-26 59 0 198 -23 198 -32 0 -4 9 -8 20 -8 32 0 23 13 -25 37 -26 14 -45 18
-47 12 -2 -6 -15 -9 -30 -7 -26 3 -26 4 -12 37 13 32 15 33 32 17 10 -9 26
-16 35 -16 21 0 22 29 2 36 -8 4 -15 14 -15 23 -1 14 -2 14 -14 -1 -16 -22
-42 -23 -50 -3 -4 11 -21 15 -63 15 -46 0 -66 -5 -96 -25z"/>
<path d="M6819 3176 c-1 -3 -3 -10 -4 -16 -1 -5 -3 -13 -4 -17 -1 -5 -6 -1
-11 7 -8 12 -10 12 -10 -5 0 -11 3 -37 6 -57 6 -36 9 -38 43 -38 25 0 40 6 49
20 13 21 72 29 72 10 0 -14 32 -12 53 4 21 16 22 46 2 46 -9 0 -26 7 -39 15
-21 14 -24 14 -36 0 -17 -21 -37 -19 -45 5 -3 11 -11 20 -17 20 -5 0 -8 -6 -5
-12 6 -18 -12 -50 -24 -43 -5 4 -9 17 -9 30 0 21 -18 46 -21 31z"/>
</g>
</svg>
